<?xml version="1.0"?>
<svg version="1.1" xmlns="http://www.w3.org/2000/svg" width="400px" height="200px" style="border: dashed 2px #aaa"><path fill="#d69909" d="M122.12,101.4l-0.756-3.22s-1.484-0.56-3.584-0.56c-3.78,0-5.88,2.8-5.88,7.98c0,5.04,2.52,7.28,6.02,7.28c2.94,0,5.6-2.24,5.6-2.24l1.12,1.82s-2.8,2.94-7,2.94c-5.6,0-8.96-3.36-8.96-9.66c0-6.44,3.64-10.5,9.38-10.5c3.08,0,6.3,1.4,6.3,1.4l-0.14,4.76l-2.1,0z M130.4808,95.66c0-1.26,0.84-1.96,1.82-1.96c1.12,0,1.82,0.56,1.82,1.96c0,1.26-0.98,1.96-1.82,1.96c-1.12,0-1.82-0.7-1.82-1.96z M135.9408,113.58l0,1.54l-7.28,0l0-1.54l2.38-0.7l0-10.36l-2.38-0.56l0-1.54l5.18-0.14l0,12.6z M144.5816,100.28l0.252,1.988c0.672-0.588,2.884-2.268,5.208-2.268c3.08,0,4.48,1.96,4.48,5.04l0,7.84l2.1,0.7l0,1.54l-6.72,0l0-1.54l1.82-0.7l0-7.56c0-1.96-0.7-2.94-2.52-2.94c-2.38,0-4.06,2.24-4.06,2.24l0,8.26l1.82,0.7l0,1.54l-7,0l0-1.54l2.38-0.7l0-10.36l-2.38-0.56l0-1.54z M173.1024,108.12l-9.66,0c0,3.08,1.652,5.04,4.06,5.04c2.8,0,4.704-1.54,4.704-1.54l0.98,1.456s-2.604,2.324-5.964,2.324c-4.48,0-6.72-2.94-6.72-7.56c0-4.48,2.8-7.84,6.86-7.84s5.88,2.38,5.88,6.58c0,0.7-0.14,1.484-0.14,1.54z M163.5544,106.02l6.72,0c0-2.1-0.812-3.836-3.052-3.836s-3.5,1.736-3.668,3.836z M179.9232,112.88l0-15.12l-2.38-0.56l0-1.54l5.32-0.14l2.94,0c4.2,0,6.44,2.24,6.44,5.74c0,4.34-2.8,6.58-7.56,6.58l-1.82,0l0,5.04l2.38,0.56l0,1.68l-7.7,0l0-1.68z M182.8632,105.6l1.82,0c3.08,0,4.62-1.4,4.62-3.92c0-2.24-1.26-3.92-3.64-3.92l-2.8,0l0,7.84z M212.364,113.44l0,1.54l-4.62,0.14l-0.28-1.96c-0.672,0.588-2.884,2.24-5.18,2.24c-3.08,0-4.48-1.932-4.48-5.012l0-7.868l-2.38-0.56l0-1.54l5.18-0.14l0,9.828c0,1.96,0.7,2.912,2.52,2.912c2.38,0,4.06-2.212,4.06-2.212l0-8.288l-2.38-0.56l0-1.54l5.18-0.14l0,12.6z M223.4408,113.58l0,1.54l-7.756,0l0-1.54l2.38-0.7l0-17.08l-2.38-0.56l0-1.54l5.236-0.14l0,19.32z M228.7496,110.64l0.308,2.408s0.84,0.252,2.352,0.252c1.68,0,3.164-0.476,3.164-2.212c0-3.024-7.812-1.624-7.812-6.72c0-2.912,2.24-4.368,5.124-4.368c2.212,0,4.788,0.84,4.788,0.84l-0.084,3.78l-1.82,0l-0.448-2.184s-0.868-0.336-2.268-0.336c-1.428,0-2.492,0.448-2.492,1.876c0,2.996,7.812,1.848,7.812,6.636c0,3.22-2.8,4.788-6.16,4.788c-2.576,0-4.424-0.616-4.424-0.616l0-4.144l1.96,0z M254.2744,108.12l-9.66,0c0,3.08,1.652,5.04,4.06,5.04c2.8,0,4.704-1.54,4.704-1.54l0.98,1.456s-2.604,2.324-5.964,2.324c-4.48,0-6.72-2.94-6.72-7.56c0-4.48,2.8-7.84,6.86-7.84s5.88,2.38,5.88,6.58c0,0.7-0.14,1.484-0.14,1.54z M244.7264,106.02l6.72,0c0-2.1-0.812-3.836-3.052-3.836s-3.5,1.736-3.668,3.836z"/><path fill="#" d=""/></svg>
